<svg xmlns="http://www.w3.org/2000/svg" viewBox="0 0 800 500">
  <defs>
    <linearGradient id="constructbg" x1="0" y1="0" x2="1" y2="0"><stop offset="0%" stop-color="#ea580c"/><stop offset="100%" stop-color="#f97316"/></linearGradient>
  </defs>
  <rect width="800" height="500" fill="#fafaf9"/>
  <!-- Header -->
  <rect x="0" y="0" width="800" height="48" fill="#292524"/>
  <text x="30" y="30" font-family="Arial,sans-serif" font-size="14" font-weight="bold" fill="#f97316">BUILDPRO</text>
  <text x="500" y="30" font-family="Arial,sans-serif" font-size="10" fill="#a8a29e">Projects</text>
  <text x="560" y="30" font-family="Arial,sans-serif" font-size="10" fill="#a8a29e">Services</text>
  <text x="620" y="30" font-family="Arial,sans-serif" font-size="10" fill="#a8a29e">About</text>
  <rect x="680" y="16" width="90" height="28" rx="6" fill="#f97316"/>
  <text x="725" y="35" font-family="Arial,sans-serif" font-size="10" font-weight="bold" fill="#fff" text-anchor="middle">Get Quote</text>
  <!-- Hero -->
  <rect x="0" y="48" width="800" height="110" fill="url(#constructbg)"/>
  <text x="400" y="90" font-family="Arial,sans-serif" font-size="22" font-weight="bold" fill="#fff" text-anchor="middle">Building the Future, One Project at a Time</text>
  <text x="400" y="114" font-family="Arial,sans-serif" font-size="10" fill="#fed7aa" text-anchor="middle">Commercial   Residential   Industrial   Infrastructure   Renovation</text>
  <rect x="310" y="128" width="180" height="32" rx="8" fill="#fff"/>
  <text x="400" y="149" font-family="Arial,sans-serif" font-size="11" font-weight="bold" fill="#ea580c" text-anchor="middle">View Our Projects</text>
  <!-- Services Bar -->
  <rect x="20" y="180" width="235" height="48" rx="8" fill="#fff" stroke="#e7e5e4" stroke-width="1"/>
  <text x="137" y="202" font-family="Arial,sans-serif" font-size="11" font-weight="bold" fill="#1e293b" text-anchor="middle">&#127959;  Design &amp; Planning</text>
  <text x="137" y="218" font-family="Arial,sans-serif" font-size="8" fill="#78716c" text-anchor="middle">Architectural &amp; structural</text>
  <rect x="270" y="180" width="235" height="48" rx="8" fill="#fff" stroke="#e7e5e4" stroke-width="1"/>
  <text x="387" y="202" font-family="Arial,sans-serif" font-size="11" font-weight="bold" fill="#1e293b" text-anchor="middle">&#127960;  Construction</text>
  <text x="387" y="218" font-family="Arial,sans-serif" font-size="8" fill="#78716c" text-anchor="middle">General contracting</text>
  <rect x="520" y="180" width="260" height="48" rx="8" fill="#fff" stroke="#e7e5e4" stroke-width="1"/>
  <text x="650" y="202" font-family="Arial,sans-serif" font-size="11" font-weight="bold" fill="#1e293b" text-anchor="middle">&#128736;  Project Management</text>
  <text x="650" y="218" font-family="Arial,sans-serif" font-size="8" fill="#78716c" text-anchor="middle">Timeline &amp; budget control</text>
  <!-- Project Gallery -->
  <text x="20" y="265" font-family="Arial,sans-serif" font-size="13" font-weight="bold" fill="#1e293b">Featured Projects</text>
  <!-- Row 1 -->
  <rect x="20" y="278" width="240" height="100" rx="8" fill="#f97316" opacity="0.15"/>
  <rect x="32" y="286" width="216" height="84" rx="6" fill="#f97316" opacity="0.12"/>
  <text x="140" y="325" font-size="28" text-anchor="middle">&#127970;</text>
  <rect x="240" y="288" width="70" height="18" rx="4" fill="#f97316"/>
  <text x="275" y="300" font-family="Arial,sans-serif" font-size="8" fill="#fff" text-anchor="middle">Completed</text>
  <text x="32" y="362" font-family="Arial,sans-serif" font-size="11" font-weight="bold" fill="#292524">Skyline Tower</text>
  <text x="32" y="376" font-family="Arial,sans-serif" font-size="9" fill="#78716c">32-story commercial</text>
  <rect x="280" y="278" width="240" height="100" rx="8" fill="#a8a29e" opacity="0.15"/>
  <rect x="292" y="286" width="216" height="84" rx="6" fill="#a8a29e" opacity="0.12"/>
  <text x="400" y="325" font-size="28" text-anchor="middle">&#127959;</text>
  <rect x="500" y="288" width="60" height="18" rx="4" fill="#a8a29e"/>
  <text x="530" y="300" font-family="Arial,sans-serif" font-size="8" fill="#fff" text-anchor="middle">In Progress</text>
  <text x="292" y="362" font-family="Arial,sans-serif" font-size="11" font-weight="bold" fill="#292524">Harbor Bridge</text>
  <text x="292" y="376" font-family="Arial,sans-serif" font-size="9" fill="#78716c">Infrastructure project</text>
  <rect x="540" y="278" width="240" height="100" rx="8" fill="#f97316" opacity="0.15"/>
  <rect x="552" y="286" width="216" height="84" rx="6" fill="#f97316" opacity="0.12"/>
  <text x="660" y="325" font-size="28" text-anchor="middle">&#127963;</text>
  <rect x="760" y="288" width="70" height="18" rx="4" fill="#f97316"/>
  <text x="795" y="300" font-family="Arial,sans-serif" font-size="8" fill="#fff" text-anchor="middle">Completed</text>
  <text x="552" y="362" font-family="Arial,sans-serif" font-size="11" font-weight="bold" fill="#292524">Green Valley Mall</text>
  <text x="552" y="376" font-family="Arial,sans-serif" font-size="9" fill="#78716c">Retail complex</text>
  <!-- Row 2 -->
  <rect x="20" y="395" width="170" height="85" rx="8" fill="#a8a29e" opacity="0.12"/>
  <text x="105" y="432" font-size="24" text-anchor="middle">&#127961;</text>
  <text x="105" y="458" font-family="Arial,sans-serif" font-size="10" font-weight="bold" fill="#292524" text-anchor="middle">Riverside Park</text>
  <text x="105" y="472" font-family="Arial,sans-serif" font-size="8" fill="#78716c" text-anchor="middle">In Progress</text>
  <rect x="210" y="395" width="170" height="85" rx="8" fill="#f97316" opacity="0.12"/>
  <text x="295" y="432" font-size="24" text-anchor="middle">&#127968;</text>
  <text x="295" y="458" font-family="Arial,sans-serif" font-size="10" font-weight="bold" fill="#292524" text-anchor="middle">Oakwood Homes</text>
  <text x="295" y="472" font-family="Arial,sans-serif" font-size="8" fill="#78716c" text-anchor="middle">40 units completed</text>
  <rect x="400" y="395" width="170" height="85" rx="8" fill="#a8a29e" opacity="0.12"/>
  <text x="485" y="432" font-size="24" text-anchor="middle">&#127977;</text>
  <text x="485" y="458" font-family="Arial,sans-serif" font-size="10" font-weight="bold" fill="#292524" text-anchor="middle">Tech Campus</text>
  <text x="485" y="472" font-family="Arial,sans-serif" font-size="8" fill="#78716c" text-anchor="middle">Planned 2027</text>
  <rect x="590" y="395" width="190" height="85" rx="8" fill="url(#constructbg)"/>
  <text x="685" y="435" font-family="Arial,sans-serif" font-size="12" font-weight="bold" fill="#fff" text-anchor="middle">View All Projects</text>
  <text x="685" y="452" font-family="Arial,sans-serif" font-size="10" fill="#fed7aa" text-anchor="middle">150+ successful builds</text>
</svg>