<svg xmlns="http://www.w3.org/2000/svg" viewBox="0 0 800 500">
  <defs>
    <linearGradient id="realhero" x1="0" y1="0" x2="1" y2="0"><stop offset="0%" stop-color="#1e40af"/><stop offset="100%" stop-color="#2563eb"/></linearGradient>
  </defs>
  <rect width="800" height="500" fill="#f8fafc"/>
  <!-- Header -->
  <rect x="0" y="0" width="800" height="48" fill="#fff"/>
  <text x="30" y="30" font-family="Arial,sans-serif" font-size="14" font-weight="bold" fill="#1e40af">ESTATE PRO</text>
  <text x="480" y="30" font-family="Arial,sans-serif" font-size="10" fill="#64748b">Buy</text>
  <text x="520" y="30" font-family="Arial,sans-serif" font-size="10" fill="#64748b">Rent</text>
  <text x="560" y="30" font-family="Arial,sans-serif" font-size="10" fill="#64748b">Sell</text>
  <text x="600" y="30" font-family="Arial,sans-serif" font-size="10" fill="#64748b">Agents</text>
  <rect x="660" y="20" width="100" height="24" rx="12" fill="#1e40af"/>
  <text x="710" y="37" font-family="Arial,sans-serif" font-size="9" font-weight="bold" fill="#fff" text-anchor="middle">Find Property</text>
  <!-- Hero -->
  <rect x="0" y="48" width="800" height="100" fill="url(#realhero)"/>
  <text x="400" y="85" font-family="Arial,sans-serif" font-size="18" font-weight="bold" fill="#fff" text-anchor="middle">Find Your Dream Home</text>
  <text x="400" y="108" font-family="Arial,sans-serif" font-size="10" fill="#bfdbfe" text-anchor="middle">Thousands of verified listings across 50+ cities</text>
  <rect x="180" y="120" width="140" height="28" rx="6" fill="#fff" opacity="0.95"/>
  <text x="192" y="138" font-family="Arial,sans-serif" font-size="9" fill="#94a3b8">Location</text>
  <rect x="330" y="120" width="140" height="28" rx="6" fill="#fff" opacity="0.95"/>
  <text x="342" y="138" font-family="Arial,sans-serif" font-size="9" fill="#94a3b8">Property Type</text>
  <rect x="480" y="120" width="140" height="28" rx="6" fill="#dbeafe"/>
  <text x="550" y="137" font-family="Arial,sans-serif" font-size="11" font-weight="bold" fill="#1e40af" text-anchor="middle">Search</text>
  <!-- Property Cards -->
  <text x="20" y="185" font-family="Arial,sans-serif" font-size="13" font-weight="bold" fill="#1e293b">Featured Properties</text>
  <!-- Card 1 -->
  <rect x="20" y="198" width="240" height="195" rx="10" fill="#fff" stroke="#e2e8f0" stroke-width="1"/>
  <rect x="32" y="210" width="216" height="95" rx="6" fill="#dbeafe"/>
  <text x="140" y="265" font-size="32" text-anchor="middle">&#127968;</text>
  <rect x="240" y="220" width="46" height="18" rx="4" fill="#1e40af"/>
  <text x="263" y="233" font-family="Arial,sans-serif" font-size="8" fill="#fff" text-anchor="middle">FOR SALE</text>
  <text x="32" y="325" font-family="Arial,sans-serif" font-size="12" font-weight="bold" fill="#1e293b">Luxury Villa</text>
  <text x="32" y="342" font-family="Arial,sans-serif" font-size="9" fill="#6b7280">456 Park Avenue, NY</text>
  <text x="32" y="364" font-family="Arial,sans-serif" font-size="9" fill="#6b7280">4 Beds   3 Baths   2,800 sqft</text>
  <text x="32" y="386" font-family="Arial,sans-serif" font-size="14" font-weight="bold" fill="#1e40af">$850,000</text>
  <!-- Card 2 -->
  <rect x="280" y="198" width="240" height="195" rx="10" fill="#fff" stroke="#e2e8f0" stroke-width="1"/>
  <rect x="292" y="210" width="216" height="95" rx="6" fill="#e0e7ff"/>
  <text x="400" y="265" font-size="32" text-anchor="middle">&#127969;</text>
  <rect x="502" y="220" width="46" height="18" rx="4" fill="#047857"/>
  <text x="525" y="233" font-family="Arial,sans-serif" font-size="8" fill="#fff" text-anchor="middle">FOR RENT</text>
  <text x="292" y="325" font-family="Arial,sans-serif" font-size="12" font-weight="bold" fill="#1e293b">Modern Apartment</text>
  <text x="292" y="342" font-family="Arial,sans-serif" font-size="9" fill="#6b7280">789 Downtown, LA</text>
  <text x="292" y="364" font-family="Arial,sans-serif" font-size="9" fill="#6b7280">2 Beds   2 Baths   1,200 sqft</text>
  <text x="292" y="386" font-family="Arial,sans-serif" font-size="14" font-weight="bold" fill="#1e40af">$3,200/mo</text>
  <!-- Card 3 -->
  <rect x="540" y="198" width="240" height="195" rx="10" fill="#fff" stroke="#e2e8f0" stroke-width="1"/>
  <rect x="552" y="210" width="216" height="95" rx="6" fill="#d1fae5"/>
  <text x="660" y="265" font-size="32" text-anchor="middle">&#127970;</text>
  <rect x="760" y="220" width="46" height="18" rx="4" fill="#1e40af"/>
  <text x="783" y="233" font-family="Arial,sans-serif" font-size="8" fill="#fff" text-anchor="middle">FOR SALE</text>
  <text x="552" y="325" font-family="Arial,sans-serif" font-size="12" font-weight="bold" fill="#1e293b">Family Home</text>
  <text x="552" y="342" font-family="Arial,sans-serif" font-size="9" fill="#6b7280">123 Oak Street, SF</text>
  <text x="552" y="364" font-family="Arial,sans-serif" font-size="9" fill="#6b7280">5 Beds   4 Baths   3,600 sqft</text>
  <text x="552" y="386" font-family="Arial,sans-serif" font-size="14" font-weight="bold" fill="#1e40af">$1,250,000</text>
  <!-- Map placeholder -->
  <rect x="20" y="410" width="760" height="60" rx="10" fill="#e0e7ff"/>
  <text x="400" y="440" font-family="Arial,sans-serif" font-size="11" fill="#64748b" text-anchor="middle">&#128506;  Explore properties on the interactive map</text>
  <rect x="330" y="450" width="140" height="22" rx="6" fill="#1e40af"/>
  <text x="400" y="465" font-family="Arial,sans-serif" font-size="9" font-weight="bold" fill="#fff" text-anchor="middle">Open Map View</text>
</svg>