<svg xmlns="http://www.w3.org/2000/svg" viewBox="0 0 800 500">
  <defs>
    <linearGradient id="top1" x1="0" y1="0" x2="1" y2="0"><stop offset="0%" stop-color="#0f0f0f"/><stop offset="100%" stop-color="#1a1a1a"/></linearGradient>
  </defs>
  <rect width="800" height="500" fill="#fafafa"/>
  <!-- Header -->
  <rect x="0" y="0" width="800" height="48" fill="url(#top1)"/>
  <text x="30" y="30" font-family="Arial,sans-serif" font-size="14" font-weight="bold" fill="#ec4899">STYLE STORE</text>
  <text x="480" y="30" font-family="Arial,sans-serif" font-size="10" fill="#a1a1aa">Women</text>
  <text x="540" y="30" font-family="Arial,sans-serif" font-size="10" fill="#a1a1aa">Men</text>
  <text x="590" y="30" font-family="Arial,sans-serif" font-size="10" fill="#a1a1aa">Accessories</text>
  <text x="680" y="30" font-family="Arial,sans-serif" font-size="10" fill="#ec4899">Sale</text>
  <rect x="720" y="18" width="40" height="24" rx="12" fill="#ec4899"/>
  <text x="740" y="34" font-size="11" fill="#fff" text-anchor="middle">&#9830;</text>
  <!-- Hero Banner -->
  <rect x="0" y="48" width="800" height="90" fill="#fce7f3"/>
  <text x="400" y="88" font-family="Arial,sans-serif" font-size="16" font-weight="bold" fill="#be185d" text-anchor="middle">Summer Collection 2026</text>
  <text x="400" y="108" font-family="Arial,sans-serif" font-size="10" fill="#ec4899" text-anchor="middle">Up to 50% off selected items   Free shipping on orders $100+</text>
  <rect x="340" y="118" width="120" height="28" rx="14" fill="#ec4899"/>
  <text x="400" y="137" font-family="Arial,sans-serif" font-size="10" font-weight="bold" fill="#fff" text-anchor="middle">Shop Now</text>
  <!-- Product Grid -->
  <!-- Row 1 -->
  <rect x="20" y="160" width="180" height="210" rx="10" fill="#fff" stroke="#f4f4f5" stroke-width="1"/>
  <rect x="35" y="170" width="150" height="130" rx="8" fill="#fce7f3"/>
  <text x="110" y="242" font-size="28" text-anchor="middle">&#128087;</text>
  <text x="35" y="320" font-family="Arial,sans-serif" font-size="11" font-weight="bold" fill="#1e293b">Floral Maxi Dress</text>
  <text x="35" y="336" font-family="Arial,sans-serif" font-size="10" fill="#6b7280">Cotton blend, 5 colors</text>
  <text x="35" y="358" font-family="Arial,sans-serif" font-size="13" font-weight="bold" fill="#ec4899">$89.99</text>
  <rect x="215" y="160" width="180" height="210" rx="10" fill="#fff" stroke="#f4f4f5" stroke-width="1"/>
  <rect x="230" y="170" width="150" height="130" rx="8" fill="#e0e7ff"/>
  <text x="305" y="242" font-size="28" text-anchor="middle">&#128086;</text>
  <text x="230" y="320" font-family="Arial,sans-serif" font-size="11" font-weight="bold" fill="#1e293b">Denim Jacket</text>
  <text x="230" y="336" font-family="Arial,sans-serif" font-size="10" fill="#6b7280">Oversized fit, vintage</text>
  <text x="230" y="358" font-family="Arial,sans-serif" font-size="13" font-weight="bold" fill="#ec4899">$129.99</text>
  <rect x="410" y="160" width="180" height="210" rx="10" fill="#fff" stroke="#f4f4f5" stroke-width="1"/>
  <rect x="425" y="170" width="150" height="130" rx="8" fill="#fef3c7"/>
  <text x="500" y="242" font-size="28" text-anchor="middle">&#128141;</text>
  <text x="425" y="320" font-family="Arial,sans-serif" font-size="11" font-weight="bold" fill="#1e293b">Gold Necklace</text>
  <text x="425" y="336" font-family="Arial,sans-serif" font-size="10" fill="#6b7280">18k plated, adjustable</text>
  <text x="425" y="358" font-family="Arial,sans-serif" font-size="13" font-weight="bold" fill="#ec4899">$49.99</text>
  <rect x="605" y="160" width="175" height="210" rx="10" fill="#fff" stroke="#f4f4f5" stroke-width="1"/>
  <rect x="620" y="170" width="145" height="130" rx="8" fill="#d1fae5"/>
  <text x="692" y="242" font-size="28" text-anchor="middle">&#128096;</text>
  <text x="620" y="320" font-family="Arial,sans-serif" font-size="11" font-weight="bold" fill="#1e293b">Leather Sandals</text>
  <text x="620" y="336" font-family="Arial,sans-serif" font-size="10" fill="#6b7280">Genuine leather, size 5-11</text>
  <text x="620" y="358" font-family="Arial,sans-serif" font-size="13" font-weight="bold" fill="#ec4899">$79.99</text>
  <!-- Bottom bar -->
  <rect x="20" y="388" width="760" height="40" rx="10" fill="url(#top1)"/>
  <text x="40" y="413" font-family="Arial,sans-serif" font-size="9" fill="#a1a1aa">Free shipping   Easy returns   24/7 support   Secure checkout</text>
  <!-- Footer -->
  <rect x="20" y="440" width="760" height="1" fill="#f4f4f5"/>
  <text x="400" y="476" font-family="Arial,sans-serif" font-size="9" fill="#a1a1aa" text-anchor="middle"> 2026 Style Store. All rights reserved.   Privacy   Terms   Contact</text>
</svg>