<svg xmlns="http://www.w3.org/2000/svg" viewBox="0 0 800 500">
  <defs>
    <linearGradient id="rosebg" x1="0" y1="0" x2="1" y2="0"><stop offset="0%" stop-color="#fff1f2"/><stop offset="100%" stop-color="#fdf2f8"/></linearGradient>
  </defs>
  <rect width="800" height="500" fill="#fdf2f8"/>
  <!-- Header -->
  <rect x="0" y="0" width="800" height="48" fill="#fff"/>
  <text x="30" y="30" font-family="Arial,sans-serif" font-size="14" font-weight="bold" fill="#be123c">BLOOM BEAUTY</text>
  <text x="500" y="30" font-family="Arial,sans-serif" font-size="10" fill="#9ca3af">Skincare</text>
  <text x="560" y="30" font-family="Arial,sans-serif" font-size="10" fill="#9ca3af">Makeup</text>
  <text x="620" y="30" font-family="Arial,sans-serif" font-size="10" fill="#9ca3af">Fragrance</text>
  <text x="690" y="30" font-family="Arial,sans-serif" font-size="10" fill="#be123c">New</text>
  <rect x="740" y="22" width="40" height="20" rx="10" fill="#fce7f3"/>
  <!-- Hero -->
  <rect x="0" y="48" width="800" height="80" fill="url(#rosebg)"/>
  <text x="400" y="82" font-family="Arial,sans-serif" font-size="14" font-weight="bold" fill="#9d174d" text-anchor="middle">Discover Your Natural Glow</text>
  <text x="400" y="104" font-family="Arial,sans-serif" font-size="10" fill="#e11d48" text-anchor="middle">Cruelty-free   Vegan   Dermatologist tested   Free samples</text>
  <!-- Category Row -->
  <rect x="15" y="140" width="90" height="36" rx="18" fill="#be123c"/>
  <text x="60" y="162" font-family="Arial,sans-serif" font-size="9" font-weight="bold" fill="#fff" text-anchor="middle">All</text>
  <rect x="112" y="140" width="90" height="36" rx="18" fill="#fff" stroke="#fbcfe8" stroke-width="1"/>
  <text x="157" y="162" font-family="Arial,sans-serif" font-size="9" fill="#be123c" text-anchor="middle">Skincare</text>
  <rect x="209" y="140" width="90" height="36" rx="18" fill="#fff" stroke="#fbcfe8" stroke-width="1"/>
  <text x="254" y="162" font-family="Arial,sans-serif" font-size="9" fill="#be123c" text-anchor="middle">Makeup</text>
  <rect x="306" y="140" width="90" height="36" rx="18" fill="#fff" stroke="#fbcfe8" stroke-width="1"/>
  <text x="351" y="162" font-family="Arial,sans-serif" font-size="9" fill="#be123c" text-anchor="middle">Body</text>
  <rect x="403" y="140" width="90" height="36" rx="18" fill="#fff" stroke="#fbcfe8" stroke-width="1"/>
  <text x="448" y="162" font-family="Arial,sans-serif" font-size="9" fill="#be123c" text-anchor="middle">Hair</text>
  <!-- Circular Products Grid -->
  <!-- Row 1 -->
  <rect x="15" y="190" width="240" height="130" rx="14" fill="#fff"/>
  <circle cx="80" cy="255" r="38" fill="#fce7f3"/>
  <text x="80" y="260" font-size="20" text-anchor="middle">&#10053;</text>
  <text x="135" y="235" font-family="Arial,sans-serif" font-size="11" font-weight="bold" fill="#1e293b">Rose Day Cream</text>
  <text x="135" y="252" font-family="Arial,sans-serif" font-size="9" fill="#9ca3af">SPF 30   Hyaluronic Acid</text>
  <text x="135" y="274" font-family="Arial,sans-serif" font-size="11" font-weight="bold" fill="#e11d48">$48.00</text>
  <rect x="215" y="272" width="28" height="22" rx="6" fill="#e11d48"/>
  <text x="229" y="287" font-size="10" fill="#fff" text-anchor="middle">+</text>
  <rect x="275" y="190" width="240" height="130" rx="14" fill="#fff"/>
  <circle cx="340" cy="255" r="38" fill="#e0e7ff"/>
  <text x="340" y="260" font-size="20" text-anchor="middle">&#10048;</text>
  <text x="395" y="235" font-family="Arial,sans-serif" font-size="11" font-weight="bold" fill="#1e293b">Serum Concentrate</text>
  <text x="395" y="252" font-family="Arial,sans-serif" font-size="9" fill="#9ca3af">Vitamin C   Retinol</text>
  <text x="395" y="274" font-family="Arial,sans-serif" font-size="11" font-weight="bold" fill="#e11d48">$62.00</text>
  <rect x="475" y="272" width="28" height="22" rx="6" fill="#e11d48"/>
  <text x="489" y="287" font-size="10" fill="#fff" text-anchor="middle">+</text>
  <rect x="535" y="190" width="250" height="130" rx="14" fill="#fff"/>
  <circle cx="600" cy="255" r="38" fill="#fef3c7"/>
  <text x="600" y="260" font-size="20" text-anchor="middle">&#127801;</text>
  <text x="655" y="235" font-family="Arial,sans-serif" font-size="11" font-weight="bold" fill="#1e293b">Lip Gloss Set</text>
  <text x="655" y="252" font-family="Arial,sans-serif" font-size="9" fill="#9ca3af">6 colors   Long-lasting</text>
  <text x="655" y="274" font-family="Arial,sans-serif" font-size="11" font-weight="bold" fill="#e11d48">$34.00</text>
  <rect x="747" y="272" width="28" height="22" rx="6" fill="#e11d48"/>
  <text x="761" y="287" font-size="10" fill="#fff" text-anchor="middle">+</text>
  <!-- Row 2 -->
  <rect x="15" y="334" width="240" height="130" rx="14" fill="#fff"/>
  <circle cx="80" cy="399" r="38" fill="#d1fae5"/>
  <text x="80" y="404" font-size="20" text-anchor="middle">&#127807;</text>
  <text x="135" y="379" font-family="Arial,sans-serif" font-size="11" font-weight="bold" fill="#1e293b">Face Mask Bundle</text>
  <text x="135" y="396" font-family="Arial,sans-serif" font-size="9" fill="#9ca3af">Charcoal   Aloe   Green Tea</text>
  <text x="135" y="418" font-family="Arial,sans-serif" font-size="11" font-weight="bold" fill="#e11d48">$28.00</text>
  <rect x="275" y="334" width="240" height="130" rx="14" fill="#fff"/>
  <circle cx="340" cy="399" r="38" fill="#f3e8ff"/>
  <text x="340" y="404" font-size="20" text-anchor="middle">&#128150;</text>
  <text x="395" y="379" font-family="Arial,sans-serif" font-size="11" font-weight="bold" fill="#1e293b">Perfume Elixir</text>
  <text x="395" y="396" font-family="Arial,sans-serif" font-size="9" fill="#9ca3af">Rose   Jasmine   50ml</text>
  <text x="395" y="418" font-family="Arial,sans-serif" font-size="11" font-weight="bold" fill="#e11d48">$89.00</text>
  <rect x="535" y="334" width="250" height="130" rx="14" fill="#fff"/>
  <circle cx="600" cy="399" r="38" fill="#fce4ec"/>
  <text x="600" y="404" font-size="20" text-anchor="middle">&#128142;</text>
  <text x="655" y="379" font-family="Arial,sans-serif" font-size="11" font-weight="bold" fill="#1e293b">Eye Shadow Palette</text>
  <text x="655" y="396" font-family="Arial,sans-serif" font-size="9" fill="#9ca3af">12 shades   Matte &amp; Shimmer</text>
  <text x="655" y="418" font-family="Arial,sans-serif" font-size="11" font-weight="bold" fill="#e11d48">$52.00</text>
</svg>