<svg xmlns="http://www.w3.org/2000/svg" viewBox="0 0 800 500">
  <defs>
    <linearGradient id="hero2" x1="0" y1="0" x2="1" y2="1"><stop offset="0%" stop-color="#7c3aed"/><stop offset="100%" stop-color="#f97316"/></linearGradient>
  </defs>
  <rect width="800" height="500" fill="#faf5ff"/>
  <!-- Header -->
  <rect x="0" y="0" width="800" height="52" fill="#fff"/>
  <text x="30" y="32" font-family="Arial,sans-serif" font-size="15" font-weight="bold" fill="#7c3aed">CREATIVE STUDIO</text>
  <text x="560" y="32" font-family="Arial,sans-serif" font-size="11" fill="#a1a1aa">Work</text>
  <text x="610" y="32" font-family="Arial,sans-serif" font-size="11" fill="#a1a1aa">About</text>
  <text x="660" y="32" font-family="Arial,sans-serif" font-size="11" fill="#a1a1aa">Services</text>
  <rect x="710" y="18" width="60" height="28" rx="14" fill="#7c3aed"/>
  <text x="740" y="37" font-family="Arial,sans-serif" font-size="10" font-weight="bold" fill="#fff" text-anchor="middle">Hire Us</text>
  <!-- Hero -->
  <rect x="0" y="52" width="800" height="160" fill="url(#hero2)"/>
  <text x="400" y="110" font-family="Arial,sans-serif" font-size="26" font-weight="bold" fill="#fff" text-anchor="middle">We Create Digital Magic</text>
  <text x="400" y="138" font-family="Arial,sans-serif" font-size="12" fill="#e9d5ff" text-anchor="middle">Branding   Web Design   Motion   Photography</text>
  <rect x="340" y="156" width="120" height="34" rx="17" fill="#fff" opacity="0.95"/>
  <text x="400" y="178" font-family="Arial,sans-serif" font-size="11" font-weight="bold" fill="#7c3aed" text-anchor="middle">View Portfolio</text>
  <!-- Gallery Grid -->
  <text x="30" y="248" font-family="Arial,sans-serif" font-size="14" font-weight="bold" fill="#3f3f46">Recent Projects</text>
  <rect x="30" y="262" width="230" height="100" rx="8" fill="#c4b5fd"/>
  <text x="145" y="318" font-family="Arial,sans-serif" font-size="10" fill="#4c1d95" text-anchor="middle">Brand Identity</text>
  <rect x="280" y="262" width="230" height="100" rx="8" fill="#fed7aa"/>
  <text x="395" y="318" font-family="Arial,sans-serif" font-size="10" fill="#9a3412" text-anchor="middle">Web Design</text>
  <rect x="530" y="262" width="240" height="100" rx="8" fill="#e9d5ff"/>
  <text x="650" y="318" font-family="Arial,sans-serif" font-size="10" fill="#4c1d95" text-anchor="middle">Motion Graphics</text>
  <rect x="30" y="375" width="170" height="80" rx="8" fill="#fed7aa"/>
  <text x="115" y="422" font-family="Arial,sans-serif" font-size="10" fill="#9a3412" text-anchor="middle">Photography</text>
  <rect x="220" y="375" width="170" height="80" rx="8" fill="#c4b5fd"/>
  <text x="305" y="422" font-family="Arial,sans-serif" font-size="10" fill="#4c1d95" text-anchor="middle">Illustration</text>
  <rect x="410" y="375" width="170" height="80" rx="8" fill="#e9d5ff"/>
  <text x="495" y="422" font-family="Arial,sans-serif" font-size="10" fill="#4c1d95" text-anchor="middle">UI/UX Design</text>
  <rect x="600" y="375" width="170" height="80" rx="8" fill="#fed7aa"/>
  <text x="685" y="422" font-family="Arial,sans-serif" font-size="10" fill="#9a3412" text-anchor="middle">Packaging</text>
</svg>