<svg xmlns="http://www.w3.org/2000/svg" viewBox="0 0 800 500">
  <defs>
    <linearGradient id="hero1" x1="0" y1="0" x2="1" y2="1"><stop offset="0%" stop-color="#1a56db"/><stop offset="100%" stop-color="#1e40af"/></linearGradient>
    <linearGradient id="card1" x1="0" y1="0" x2="0" y2="1"><stop offset="0%" stop-color="#fff"/><stop offset="100%" stop-color="#f0f4ff"/></linearGradient>
  </defs>
  <rect width="800" height="500" fill="#f8fafc"/>
  <!-- Header -->
  <rect x="0" y="0" width="800" height="52" fill="#fff"/>
  <rect x="30" y="14" width="24" height="24" rx="6" fill="url(#hero1)"/>
  <text x="60" y="32" font-family="Arial,sans-serif" font-size="14" font-weight="bold" fill="#1e40af">BUSINESS</text>
  <text x="580" y="32" font-family="Arial,sans-serif" font-size="11" fill="#64748b">Home</text>
  <text x="630" y="32" font-family="Arial,sans-serif" font-size="11" fill="#64748b">Services</text>
  <text x="700" y="32" font-family="Arial,sans-serif" font-size="11" fill="#64748b">Contact</text>
  <!-- Hero -->
  <rect x="0" y="52" width="800" height="180" fill="url(#hero1)"/>
  <text x="400" y="120" font-family="Arial,sans-serif" font-size="28" font-weight="bold" fill="#fff" text-anchor="middle">Grow Your Business</text>
  <text x="400" y="150" font-family="Arial,sans-serif" font-size="13" fill="#bfdbfe" text-anchor="middle">Professional solutions to accelerate your company growth</text>
  <rect x="320" y="168" width="160" height="38" rx="19" fill="#f59e0b"/>
  <text x="400" y="192" font-family="Arial,sans-serif" font-size="12" font-weight="bold" fill="#fff" text-anchor="middle">Get Started Free</text>
  <!-- Feature Cards -->
  <rect x="30" y="260" width="230" height="130" rx="12" fill="#fff" stroke="#e2e8f0" stroke-width="1"/>
  <rect x="40" y="278" width="36" height="36" rx="10" fill="#dbeafe"/>
  <text x="58" y="302" font-size="18" text-anchor="middle">&#9881;</text>
  <text x="48" y="332" font-family="Arial,sans-serif" font-size="13" font-weight="bold" fill="#1e293b">Strategy Consulting</text>
  <text x="48" y="350" font-family="Arial,sans-serif" font-size="10" fill="#64748b">Data-driven insights</text>
  <text x="48" y="366" font-family="Arial,sans-serif" font-size="10" fill="#64748b">to optimize your business</text>
  <rect x="285" y="260" width="230" height="130" rx="12" fill="#fff" stroke="#e2e8f0" stroke-width="1"/>
  <rect x="295" y="278" width="36" height="36" rx="10" fill="#dbeafe"/>
  <text x="313" y="302" font-size="18" text-anchor="middle">&#9679;</text>
  <text x="303" y="332" font-family="Arial,sans-serif" font-size="13" font-weight="bold" fill="#1e293b">Digital Marketing</text>
  <text x="303" y="350" font-family="Arial,sans-serif" font-size="10" fill="#64748b">SEO, PPC &amp; social media</text>
  <text x="303" y="366" font-family="Arial,sans-serif" font-size="10" fill="#64748b">campaigns that deliver</text>
  <rect x="540" y="260" width="230" height="130" rx="12" fill="#fff" stroke="#e2e8f0" stroke-width="1"/>
  <rect x="550" y="278" width="36" height="36" rx="10" fill="#dbeafe"/>
  <text x="568" y="302" font-size="18" text-anchor="middle">&#9733;</text>
  <text x="558" y="332" font-family="Arial,sans-serif" font-size="13" font-weight="bold" fill="#1e293b">Analytics &amp; Reporting</text>
  <text x="558" y="350" font-family="Arial,sans-serif" font-size="10" fill="#64748b">Real-time dashboards</text>
  <text x="558" y="366" font-family="Arial,sans-serif" font-size="10" fill="#64748b">and performance metrics</text>
  <!-- Footer -->
  <rect x="30" y="420" width="740" height="2" fill="#e2e8f0"/>
  <text x="400" y="452" font-family="Arial,sans-serif" font-size="10" fill="#94a3b8" text-anchor="middle"> 2026 Business Inc. All rights reserved.</text>
</svg>