<svg xmlns="http://www.w3.org/2000/svg" viewBox="0 0 800 500">
  <defs>
    <linearGradient id="hero4" x1="0" y1="0" x2="1" y2="0"><stop offset="0%" stop-color="#1c1917"/><stop offset="100%" stop-color="#292524"/></linearGradient>
  </defs>
  <rect width="800" height="500" fill="#1c1917"/>
  <!-- Header -->
  <rect x="30" y="12" width="740" height="36" rx="18" fill="#292524"/>
  <text x="50" y="34" font-family="Arial,sans-serif" font-size="14" font-weight="bold" fill="#fbbf24">FINE DINING</text>
  <text x="520" y="34" font-family="Arial,sans-serif" font-size="10" fill="#a8a29e">Menu</text>
  <text x="570" y="34" font-family="Arial,sans-serif" font-size="10" fill="#a8a29e">About</text>
  <text x="620" y="34" font-family="Arial,sans-serif" font-size="10" fill="#a8a29e">Events</text>
  <rect x="670" y="24" width="80" height="22" rx="11" fill="#fbbf24"/>
  <text x="710" y="38" font-family="Arial,sans-serif" font-size="9" font-weight="bold" fill="#1c1917" text-anchor="middle">Reserve Table</text>
  <!-- Hero -->
  <rect x="30" y="60" width="740" height="150" rx="16" fill="url(#hero4)"/>
  <rect x="30" y="60" width="740" height="150" rx="16" fill="#1c1917" opacity="0.3"/>
  <text x="400" y="110" font-family="Arial,sans-serif" font-size="24" font-weight="bold" fill="#fbbf24" text-anchor="middle">Exquisite Dining Experience</text>
  <text x="400" y="138" font-family="Arial,sans-serif" font-size="10" fill="#a8a29e" text-anchor="middle">Michelin-star chef   Seasonal ingredients   Award-winning wine list</text>
  <rect x="340" y="158" width="120" height="34" rx="17" fill="#fbbf24"/>
  <text x="400" y="179" font-family="Arial,sans-serif" font-size="11" font-weight="bold" fill="#1c1917" text-anchor="middle">View Our Menu</text>
  <!-- Menu Items -->
  <text x="30" y="250" font-family="Arial,sans-serif" font-size="14" font-weight="bold" fill="#f5f5f4">Today's Specials</text>
  <rect x="30" y="265" width="230" height="90" rx="10" fill="#292524"/>
  <rect x="42" y="277" width="50" height="50" rx="8" fill="#44403c"/>
  <text x="67" y="308" font-size="16" text-anchor="middle">&#127860;</text>
  <text x="105" y="295" font-family="Arial,sans-serif" font-size="12" font-weight="bold" fill="#f5f5f4">Grilled Salmon</text>
  <text x="105" y="312" font-family="Arial,sans-serif" font-size="9" fill="#a8a29e">Lemon herb butter, asparagus</text>
  <text x="220" y="340" font-family="Arial,sans-serif" font-size="12" font-weight="bold" fill="#fbbf24">$32</text>
  <rect x="285" y="265" width="230" height="90" rx="10" fill="#292524"/>
  <rect x="297" y="277" width="50" height="50" rx="8" fill="#44403c"/>
  <text x="322" y="308" font-size="16" text-anchor="middle">&#127869;</text>
  <text x="360" y="295" font-family="Arial,sans-serif" font-size="12" font-weight="bold" fill="#f5f5f4">Wagyu Steak</text>
  <text x="360" y="312" font-family="Arial,sans-serif" font-size="9" fill="#a8a29e">Truffle mash, red wine jus</text>
  <text x="475" y="340" font-family="Arial,sans-serif" font-size="12" font-weight="bold" fill="#fbbf24">$58</text>
  <rect x="540" y="265" width="230" height="90" rx="10" fill="#292524"/>
  <rect x="552" y="277" width="50" height="50" rx="8" fill="#44403c"/>
  <text x="577" y="308" font-size="16" text-anchor="middle">&#127856;</text>
  <text x="615" y="295" font-family="Arial,sans-serif" font-size="12" font-weight="bold" fill="#f5f5f4">Tiramisu</text>
  <text x="615" y="312" font-family="Arial,sans-serif" font-size="9" fill="#a8a29e">Mascarpone, espresso, cocoa</text>
  <text x="730" y="340" font-family="Arial,sans-serif" font-size="12" font-weight="bold" fill="#fbbf24">$14</text>
  <!-- Reservation Bar -->
  <rect x="30" y="375" width="740" height="60" rx="12" fill="#292524"/>
  <text x="50" y="408" font-family="Arial,sans-serif" font-size="12" font-weight="bold" fill="#f5f5f4">Reserve Your Table</text>
  <rect x="200" y="390" width="130" height="28" rx="6" fill="#1c1917" stroke="#44403c" stroke-width="1"/>
  <text x="212" y="408" font-family="Arial,sans-serif" font-size="9" fill="#78716c">Date</text>
  <rect x="345" y="390" width="100" height="28" rx="6" fill="#1c1917" stroke="#44403c" stroke-width="1"/>
  <text x="357" y="408" font-family="Arial,sans-serif" font-size="9" fill="#78716c">Time</text>
  <rect x="460" y="390" width="100" height="28" rx="6" fill="#1c1917" stroke="#44403c" stroke-width="1"/>
  <text x="472" y="408" font-family="Arial,sans-serif" font-size="9" fill="#78716c">Guests</text>
  <rect x="580" y="390" width="170" height="28" rx="14" fill="#fbbf24"/>
  <text x="665" y="408" font-family="Arial,sans-serif" font-size="11" font-weight="bold" fill="#1c1917" text-anchor="middle">Find a Table</text>
  <!-- Footer accent -->
  <rect x="30" y="450" width="740" height="1" fill="#44403c"/>
  <text x="400" y="478" font-family="Arial,sans-serif" font-size="9" fill="#78716c" text-anchor="middle"> 2026 Fine Dining   Open Tue-Sun 5PM-11PM   123 Gourmet Street</text>
</svg>