<svg xmlns="http://www.w3.org/2000/svg" viewBox="0 0 400 300" fill="none">
  <defs>
    <linearGradient id="bg1" x1="0" y1="0" x2="400" y2="300">
      <stop offset="0%" stop-color="#1a1a2e"/>
      <stop offset="100%" stop-color="#16213e"/>
    </linearGradient>
    <linearGradient id="gold1" x1="0" y1="0" x2="200" y2="200">
      <stop offset="0%" stop-color="#C8A96A"/>
      <stop offset="100%" stop-color="#D4B87A"/>
    </linearGradient>
    <linearGradient id="accent1" x1="0" y1="0" x2="400" y2="0">
      <stop offset="0%" stop-color="#e94560"/>
      <stop offset="100%" stop-color="#ff6b6b"/>
    </linearGradient>
  </defs>
  <rect width="400" height="300" fill="url(#bg1)" rx="16"/>
  <rect x="60" y="50" width="280" height="200" rx="14" fill="#0f3460" stroke="url(#gold1)" stroke-width="1.5" opacity="0.9"/>
  <rect x="75" y="65" width="250" height="8" rx="4" fill="url(#gold1)" opacity="0.6"/>
  <rect x="75" y="82" width="160" height="6" rx="3" fill="#C8A96A" opacity="0.3"/>
  <rect x="75" y="96" width="200" height="6" rx="3" fill="#C8A96A" opacity="0.3"/>
  <rect x="75" y="114" width="180" height="6" rx="3" fill="#C8A96A" opacity="0.3"/>
  <rect x="75" y="132" width="250" height="40" rx="8" fill="url(#gold1)" opacity="0.15"/>
  <rect x="75" y="182" width="120" height="40" rx="20" fill="url(#gold1)"/>
  <text x="135" y="208" text-anchor="middle" fill="#1a1a2e" font-family="Inter,sans-serif" font-weight="700" font-size="14">Get Started</text>
  <circle cx="320" cy="80" r="24" fill="url(#accent1)" opacity="0.9"/>
  <text x="320" y="86" text-anchor="middle" fill="white" font-family="Inter" font-weight="700" font-size="18">92%</text>
  <circle cx="320" cy="80" r="34" fill="none" stroke="#e94560" stroke-width="2" stroke-dasharray="60 40" opacity="0.4"/>
  <rect x="240" y="170" width="55" height="6" rx="3" fill="#C8A96A" opacity="0.3"/>
</svg>
